
<svg width="43px" height="43px" viewBox="0 0 43 43" version="1.1" xmlns="http://www.w3.org/2000/svg" xmlns:xlink="http://www.w3.org/1999/xlink">
    <!-- Generator: Sketch 43.2 (39069) - http://www.bohemiancoding.com/sketch -->
        <desc>Created with Sketch.</desc>
            <defs></defs>
                <g id="Symbols" stroke="none" stroke-width="1" fill="none" fill-rule="evenodd">
                        <g id="header" transform="translate(-100.000000, -18.000000)">
                                    <g id="worldwide" transform="translate(100.000000, 18.000000)">
                                                    <path d="M7.35729124,7.66783707 C14.9589206,-0.10894501 27.4648269,-0.257824847 35.241609,7.34380448 L33.0259267,7.37007739 C32.5442566,7.37883503 32.1676782,7.76417108 32.1676782,8.24584114 C32.1764358,8.71875356 32.5617719,9.10408961 33.0346843,9.10408961 L33.043442,9.10408961 L37.3521996,9.05154379 C37.8338697,9.04278615 38.2104481,8.6574501 38.2104481,8.17578004 L38.1579022,3.8670224 C38.1491446,3.38535234 37.7638086,3.00001629 37.2821385,3.00877393 C36.8004684,3.01753157 36.42389,3.40286762 36.42389,3.88453768 L36.4501629,6.10021996 C27.9902851,-2.16698982 14.3809165,-2.0005947 6.11370672,6.4592831 C3.24995927,9.39309165 1.28824847,13.0537841 0.456272912,17.0560244 C-0.358187373,20.9531731 -0.0779429735,24.9816864 1.26197556,28.7211976 C1.39334012,29.0715031 1.72613035,29.2992016 2.07643585,29.2992016 C2.17276986,29.2992016 2.26910387,29.2816864 2.36543788,29.2466558 C2.81207739,29.0890183 3.0485336,28.589833 2.89089613,28.1344358 C0.32490835,20.9619308 2.03264766,13.1150876 7.35729124,7.66783707 L7.35729124,7.66783707 Z" id="Shape" fill="#FFFFFF"></path>
                                                                    <path d="M6.47276986,36.8132546 C10.5100407,40.7541914 15.8259267,42.9173279 21.4570876,42.9173279 L21.7110591,42.9173279 C27.4473116,42.8472668 32.8069857,40.5615234 36.8092261,36.4541914 C39.6817312,33.5203829 41.6346843,29.8509328 42.4666599,25.8486925 C43.2811202,21.9515438 43.0008758,17.9230305 41.6609572,14.1835193 C41.5033198,13.7368798 41.0041344,13.5004236 40.5487373,13.6580611 C40.1020978,13.8156986 39.8656415,14.3148839 40.023279,14.7702811 C42.5980244,21.9427862 40.8902851,29.7896293 35.5656415,35.2368798 C31.8786762,39.002664 26.9568839,41.1132546 21.6847862,41.174558 C16.421446,41.2358615 11.4471079,39.2391202 7.68132383,35.5609124 L9.89700611,35.5346395 C10.3786762,35.5258819 10.7552546,35.1405458 10.7552546,34.6588758 C10.7464969,34.1859633 10.3611609,33.8006273 9.88824847,33.8006273 L9.87949084,33.8006273 L5.5707332,33.8531731 C5.34303462,33.8531731 5.12409369,33.9495071 4.95769857,34.1159022 C4.8000611,34.2822974 4.71248473,34.5012383 4.71248473,34.7289369 L4.76503055,39.0376945 C4.77378819,39.5106069 5.15912424,39.895943 5.63203666,39.895943 L5.6407943,39.895943 C6.12246436,39.8871853 6.49904277,39.5018493 6.49904277,39.0201792 L6.47276986,36.8132546 L6.47276986,36.8132546 Z" id="Shape" fill="#FFFFFF"></path>
                                                                                    <path d="M33.4550509,16.4780204 C31.5371283,11.8627454 27.1933401,8.7975723 22.2540326,8.49981263 C22.1664562,8.49105499 22.0701222,8.49105499 21.9737882,8.48229735 L21.9387576,8.48229735 C21.8862118,8.48229735 21.833666,8.47353971 21.7811202,8.47353971 L21.7548473,8.47353971 C21.6585132,8.47353971 21.5621792,8.46478208 21.4570876,8.46478208 C19.7493483,8.46478208 18.0853971,8.7975723 16.5002648,9.45439511 C13.2949695,10.7767984 10.7990428,13.2727251 9.47663951,16.4780204 C8.14547862,19.6833157 8.14547862,23.2126436 9.47663951,26.4091813 C11.4908961,31.2784277 16.2025051,34.4311772 21.4746029,34.4311772 C21.544664,34.4311772 21.6059674,34.4311772 21.6760285,34.4224196 C21.7110591,34.4224196 21.7548473,34.4311772 21.7898778,34.4311772 C21.8073931,34.4311772 21.8249084,34.4311772 21.833666,34.4224196 C21.9124847,34.4224196 21.9825458,34.4136619 22.0613646,34.4136619 L22.1489409,34.4136619 C22.1752138,34.4136619 22.1927291,34.4136619 22.219002,34.4049043 C23.6640122,34.3260855 25.0827495,34.002053 26.4401833,33.4415642 C29.6454786,32.1191609 32.1414053,29.6232342 33.4638086,26.4179389 C34.7862118,23.2126436 34.7949695,19.6833157 33.4638086,16.486778 C33.4550509,16.486778 33.4550509,16.486778 33.4550509,16.4780204 C33.4550509,16.486778 33.4550509,16.486778 33.4550509,16.4780204 L33.4550509,16.4780204 Z M16.9381466,11.1621344 C15.9748065,12.4144766 15.2041344,14.0521548 14.6961914,15.9525621 L11.6572912,15.9525621 C12.8395723,13.8332138 14.6786762,12.1605051 16.9381466,11.1621344 L16.9381466,11.1621344 Z M10.8691039,17.695332 L14.319613,17.695332 C14.1181874,18.877613 14.0130957,20.1387128 14.0130957,21.4611161 C14.0130957,22.7660041 14.126945,24.0358615 14.3458859,25.2269002 L10.8691039,25.2269002 C9.99334012,22.7747617 9.99334012,20.1387128 10.8691039,17.695332 L10.8691039,17.695332 Z M11.6572912,26.9521548 L14.7487373,26.9521548 C15.2917108,28.8875927 16.1149287,30.5603014 17.122057,31.8389165 C14.827556,30.8755764 12.8921181,29.1765947 11.6572912,26.9521548 L11.6572912,26.9521548 Z M20.9141141,32.574558 C19.1012831,32.0403422 17.4898778,29.8684481 16.5703259,26.9521548 L20.9141141,26.9521548 L20.9141141,32.574558 L20.9141141,32.574558 L20.9141141,32.574558 Z M20.9141141,25.2181426 L16.1236864,25.2181426 C15.8784725,24.0271039 15.7471079,22.7572464 15.7471079,21.4523585 C15.7471079,20.1299552 15.8697149,18.8600978 16.0798982,17.6865743 L20.9141141,17.6865743 L20.9141141,25.2181426 L20.9141141,25.2181426 Z M20.9141141,15.9613198 L16.4915071,15.9613198 C17.3760285,12.9486925 18.9874338,10.8205866 20.9141141,10.3301589 L20.9141141,15.9613198 L20.9141141,15.9613198 Z M31.2743992,15.9525621 L28.8660489,15.9525621 C28.4194094,14.2798534 27.7801018,12.8173279 26.9743992,11.6438045 C28.7521996,12.6421752 30.2497556,14.1222159 31.2743992,15.9525621 L31.2743992,15.9525621 Z M22.6481263,10.3214012 C24.5748065,10.8205866 26.1774542,12.9486925 27.0707332,15.9525621 L22.6481263,15.9525621 L22.6481263,10.3214012 L22.6481263,10.3214012 Z M22.6481263,17.695332 L27.4823422,17.695332 C27.7012831,18.8688554 27.8151324,20.1299552 27.8151324,21.4611161 C27.8151324,22.7660041 27.6837678,24.0358615 27.438554,25.2269002 L22.6481263,25.2269002 L22.6481263,17.695332 L22.6481263,17.695332 Z M22.6481263,32.574558 L22.6481263,26.9521548 L26.9919145,26.9521548 C26.0723625,29.8684481 24.4609572,32.0403422 22.6481263,32.574558 L22.6481263,32.574558 Z M26.7992464,31.3572464 C27.6487373,30.1574501 28.3405906,28.6511365 28.8222607,26.9521548 L31.2743992,26.9521548 C30.2322403,28.8262892 28.6908961,30.3413605 26.7992464,31.3572464 L26.7992464,31.3572464 Z M32.0625866,25.2181426 L29.2163544,25.2181426 C29.4352953,24.0271039 29.5491446,22.7660041 29.5491446,21.4523585 C29.5491446,20.1299552 29.444053,18.8688554 29.2426273,17.6865743 L32.0625866,17.6865743 C32.9383503,20.1387128 32.9383503,22.7747617 32.0625866,25.2181426 L32.0625866,25.2181426 Z" id="Shape" fill="#78C8F5"></path>
                                                                                                </g>
                                                                                                        </g>
                                                                                                            </g>
                                                                                                            </svg>
